<svg width="1280" height="720" viewBox="0 0 1280 720" fill="none" xmlns="http://www.w3.org/2000/svg">
  <rect width="1280" height="720" fill="#0E1511"/>
  <rect x="42" y="38" width="1196" height="644" rx="18" fill="#142018" stroke="#35503D" stroke-width="2"/>
  <text x="78" y="94" fill="#F2F6EE" font-family="Segoe UI, Arial, sans-serif" font-size="38" font-weight="700">RiftPilot</text>
  <text x="78" y="128" fill="#AAB9AE" font-family="Segoe UI, Arial, sans-serif" font-size="18">LoL replay-aware item recommendation overlay</text>

  <rect x="78" y="168" width="680" height="458" rx="12" fill="#101812" stroke="#2E4434"/>
  <rect x="78" y="168" width="680" height="56" rx="12" fill="#1E2A21"/>
  <text x="106" y="203" fill="#F2F6EE" font-family="Segoe UI, Arial, sans-serif" font-size="20" font-weight="700">Web UI</text>
  <rect x="106" y="252" width="194" height="48" rx="8" fill="#264333"/>
  <text x="132" y="283" fill="#EAF4ED" font-family="Segoe UI, Arial, sans-serif" font-size="16" font-weight="600">Live</text>
  <rect x="318" y="252" width="194" height="48" rx="8" fill="#18251C" stroke="#35503D"/>
  <text x="344" y="283" fill="#AAB9AE" font-family="Segoe UI, Arial, sans-serif" font-size="16" font-weight="600">Replay</text>
  <rect x="530" y="252" width="194" height="48" rx="8" fill="#18251C" stroke="#35503D"/>
  <text x="556" y="283" fill="#AAB9AE" font-family="Segoe UI, Arial, sans-serif" font-size="16" font-weight="600">Watch</text>

  <rect x="106" y="330" width="286" height="232" rx="12" fill="#18251C" stroke="#35503D"/>
  <text x="132" y="366" fill="#D8E9D7" font-family="Segoe UI, Arial, sans-serif" font-size="18" font-weight="700">Threat Model</text>
  <text x="132" y="404" fill="#B7C6BA" font-family="Segoe UI, Arial, sans-serif" font-size="15">AD 8 / AP 4 / Crit 9</text>
  <text x="132" y="434" fill="#B7C6BA" font-family="Segoe UI, Arial, sans-serif" font-size="15">Burst estimate: 82%</text>
  <text x="132" y="464" fill="#B7C6BA" font-family="Segoe UI, Arial, sans-serif" font-size="15">Armor avg: 146</text>
  <text x="132" y="494" fill="#B7C6BA" font-family="Segoe UI, Arial, sans-serif" font-size="15">MR avg: 72</text>

  <rect x="420" y="330" width="304" height="232" rx="12" fill="#18251C" stroke="#35503D"/>
  <text x="446" y="366" fill="#D8E9D7" font-family="Segoe UI, Arial, sans-serif" font-size="18" font-weight="700">Master+ Builds</text>
  <text x="446" y="404" fill="#B7C6BA" font-family="Segoe UI, Arial, sans-serif" font-size="15">1C 54.2% / 2C 58.7%</text>
  <text x="446" y="434" fill="#B7C6BA" font-family="Segoe UI, Arial, sans-serif" font-size="15">Sample confidence: medium</text>
  <text x="446" y="464" fill="#B7C6BA" font-family="Segoe UI, Arial, sans-serif" font-size="15">Next: Zhonya's Hourglass</text>
  <text x="446" y="494" fill="#B7C6BA" font-family="Segoe UI, Arial, sans-serif" font-size="15">Timing: one wave more</text>

  <rect x="800" y="168" width="402" height="458" rx="16" fill="#111812" stroke="#3A513E" stroke-width="2"/>
  <rect x="800" y="168" width="402" height="56" rx="16" fill="#243125"/>
  <text x="826" y="203" fill="#F2F6EE" font-family="Segoe UI, Arial, sans-serif" font-size="20" font-weight="700">Overlay</text>
  <text x="1102" y="203" fill="#DCA642" font-family="Segoe UI, Arial, sans-serif" font-size="18" font-weight="700">18:42</text>

  <text x="828" y="262" fill="#AAB9AE" font-family="Segoe UI, Arial, sans-serif" font-size="15" font-weight="700">Lux / mage / estimated 1250g</text>
  <text x="828" y="294" fill="#EAF4ED" font-family="Segoe UI, Arial, sans-serif" font-size="15">Confidence: Medium · 1st leads by 40</text>
  <text x="828" y="324" fill="#EAF4ED" font-family="Segoe UI, Arial, sans-serif" font-size="15">Burst: Zed ~138% damage</text>

  <rect x="828" y="356" width="346" height="72" rx="10" fill="#1A261D" stroke="#3A513E"/>
  <text x="850" y="386" fill="#F2F6EE" font-family="Segoe UI, Arial, sans-serif" font-size="17" font-weight="700">1. Zhonya's Hourglass</text>
  <text x="850" y="412" fill="#DCA642" font-family="Segoe UI, Arial, sans-serif" font-size="14">anti-burst · stasis · 236 pts</text>

  <rect x="828" y="446" width="346" height="72" rx="10" fill="#1A261D" stroke="#3A513E"/>
  <text x="850" y="476" fill="#F2F6EE" font-family="Segoe UI, Arial, sans-serif" font-size="17" font-weight="700">2. Banshee's Veil</text>
  <text x="850" y="502" fill="#DCA642" font-family="Segoe UI, Arial, sans-serif" font-size="14">spell shield · 196 pts</text>

  <rect x="828" y="536" width="346" height="72" rx="10" fill="#1A261D" stroke="#3A513E"/>
  <text x="850" y="566" fill="#F2F6EE" font-family="Segoe UI, Arial, sans-serif" font-size="17" font-weight="700">3. Rabadon's Deathcap</text>
  <text x="850" y="592" fill="#DCA642" font-family="Segoe UI, Arial, sans-serif" font-size="14">3-core route · 194 pts</text>
</svg>
